Patient4_TMGait_0pt5_02_left_30_EMG.mot
version=1
nRows=20
nColumns=33
inDegrees=no
endheader
time	1LAddLong	2LGlutMax	3LGlutMed	4LIliopsoas	5LSemiMemb	6LBicFemLong	7LRecFem	8LVastMed	9LVastLat	10LGasMed	11LTibAnt	12lTibPost	13LPeroneusLong	14LSol	15LExtDigLong	16LFlexDigLong	17RAddLong	18RGlutMax	19RGlutMed	20RIliopsoas	21RSemiMemb	22RBicFemLong	23RRecFem	24RVastMed	25RVastLat	26RGasMed	27RTibAnt	28RTibPost	29RPeroneusLong	30RSol	31RExtDigLong	32RFlexDigLong
39.835	-0.000763	-0.061493	-0.099335	0.006409	0.007935	-0.02594	0.012512	0.001831	0.14648	-0.003357	0.01236	0.016785	0.057983	-0.22476	-0.003662	0.000763	-0.007629	-0.004883	0.085449	-0.045013	-0.11536	0.001068	-0.066376	0.10132	0.080872	-0.023041	-0.70648	0.003967	-0.22263	-0.43869	0.001068	-0.013733
39.836	-0.000153	-0.042267	-0.028381	-0.007935	0.023041	-0.035248	0.032349	0.001526	0.15167	0.003662	0.002747	0.016327	0.053864	-0.28305	0.001068	0.003662	0.002747	0.011139	0.10544	0.08606	0.032349	-0.023804	0.005646	0.070953	0.066376	-0.018616	-0.38086	-0.003357	-0.057983	-0.17487	-0.00061	-0.020447
39.837	0.004425	-0.032806	0.08606	0.009003	0.014496	-0.021515	0.012054	0.001221	0.15701	-0.011597	0.009003	0.010223	0.042572	-0.23056	0.009613	0.007935	0.00061	0.028687	0.12283	0.21698	0.043182	0.046844	0.020294	0.067596	0.030823	-0.082245	-0.033875	-0.014954	0.11505	-0.000763	-0.001373	-0.016937
39.838	0.006866	-0.062256	0.034027	0.029907	0.034637	-0.009308	-0.004578	-0.001831	0.18036	-0.03067	0.018768	0.010223	0.041046	-0.12543	0.010529	0.008087	0.001221	0.057526	0.066528	0.20905	0.025787	0.049286	-0.004272	0.015411	0.01236	-0.12192	0.10223	-0.020142	0.24002	-0.058441	-0.001221	-0.010986
39.839	0.020294	-0.12741	0.074463	0.024719	0.063782	-0.052643	0.00824	0.001221	0.18875	-0.039215	0.011292	0.010071	0.031433	-0.060577	0.001831	0.000763	0.01297	0.062256	0.1001	0.14847	-0.021667	0.024719	0.012054	-0.040588	0.12512	-0.086365	0.11429	-0.022888	0.10651	-0.13031	0.001831	-0.00946
39.84	0.010681	-0.11581	0.069733	0.037842	0.023804	-0.026398	0.030823	0.002289	0.18616	-0.045166	0.00946	0.009308	0.027008	-0.039368	-0.007935	0.001526	0.020142	0.053558	0.059052	0.094452	0.009918	-0.001221	0.05127	-0.015411	0.20767	-0.1062	0.11566	-0.009003	-0.112	-0.2211	-0.001373	-0.006866
39.841	0.001678	-0.11902	0.041809	0.000458	0.013733	-0.014496	0.029907	0.000763	0.18402	-0.050507	0.015564	0.006866	0.015717	0.016937	-0.014343	0.010681	0.018158	0.049438	0.055084	0.073242	-0.0177	0.019989	0.033569	-0.017853	0.21545	-0.043488	0.020447	-0.048523	0.15762	-0.11536	0.000153	-0.013733
39.842	-0.003967	-0.10544	0.00473	0.003052	0.007324	-0.007172	0.040283	-0.001221	0.19806	-0.028076	0.021667	0.010681	0.023956	0.088959	-0.014496	0.000305	0.008392	0.065613	0.025635	0.032654	-0.1236	0.095825	-0.041962	0.027771	0.21698	0.085144	0.022583	-0.033417	0.45349	0.51697	-0.000153	-0.01358
39.843	0.006409	-0.092316	-0.047455	0.00885	0.021667	0.012665	0.044098	-0.002136	0.18539	-0.039215	0.017548	0.008545	0.027313	0.1207	-0.014191	0.00473	0.007935	0.075836	0.078583	-0.024719	-0.11047	0.075684	-0.063324	-0.13626	0.19257	-0.000763	0.018616	-0.031281	0.46143	0.98801	0.003357	-0.01358
39.844	-0.003357	-0.09964	-0.080261	0.000153	0.029449	0.037994	0.045166	0.001068	0.18265	-0.029449	0.012054	0.006714	0.026855	0.065918	-0.008392	0.001221	0.017853	0.15427	0.13794	-0.019073	0.13016	-0.02243	0.027466	-0.018921	0.2002	-0.052948	-0.10208	-0.023346	0.31677	0.66956	-0.002747	-0.012665
39.845	-0.004425	-0.095062	-0.080566	0.025787	-0.027161	0.031128	0.032959	0.001831	0.177	-0.027466	0.014343	0.00946	0.031891	0.033569	-0.006561	0.004883	0.032654	0.076599	0.043488	-0.051575	0.1329	-0.050354	0.05127	0.057373	0.068665	0.021057	-0.11124	0.04425	0.27161	0.10483	-0.003052	-0.009308
39.846	0.002136	-0.07431	-0.11108	0.011902	-0.077362	0.039215	0.037231	-0.002289	0.16617	-0.037231	0.010071	0.007935	0.025787	0.014191	-0.004883	-0.000153	0.049133	0.013428	0.005646	-0.096436	0.00946	-0.017395	0.1152	0.066681	-0.38544	0.075836	0.08194	-0.015717	0.096893	0.022125	0.000763	-0.003052
39.847	0.001068	-0.10117	-0.11887	0.008087	-0.18784	0.018616	0.015717	-0.003967	0.17883	-0.036621	0.004425	0.012054	0.02243	-0.015106	-0.013733	-0.000916	0.032043	0.010986	0.096588	-0.15717	-0.11322	-0.031281	-0.010681	-0.004272	-0.21835	0.054016	0.46463	-0.050659	-0.041809	0.013275	-0.000763	-0.008545
39.848	0.001221	-0.06073	-0.070648	0.013123	-0.12329	-0.03006	0.011139	-0.002899	0.18036	-0.04776	0.010071	0.007782	0.033569	-0.034332	-0.006409	0.005798	0.007477	0.054474	0.56595	-0.21988	-0.18372	-0.10346	-0.046997	-0.007172	-0.13947	0.023804	0.73486	-0.036926	-0.071564	0.26459	-0.002594	-0.007629
39.849	0.015869	-0.00946	0.024109	0.01236	0.080872	-0.082245	0.021362	-0.001526	0.16449	-0.04425	0.012207	0.001526	0.046539	-0.012207	-0.007782	0.008698	-0.001068	0.11276	0.47485	-0.077362	-0.12238	-0.10101	-0.092621	-0.015411	-0.091095	-0.016174	0.61172	-0.001678	0.033569	0.0383	-0.002289	-0.015259
39.85	0.008698	0.018158	0.087433	0.003204	0.14358	-0.096741	0.017548	-0.002136	0.14999	-0.050812	0.006866	0.001221	0.089569	0.004272	-0.005951	-0.004578	0.018921	0.112	0.086823	0.097809	-0.054169	-0.003815	-0.074463	0.044708	-0.12146	0.001984	-0.1152	0.071259	0.15259	-0.15884	-0.001831	-0.007324
39.851	-0.008545	-0.002289	0.035706	0.022736	0.11688	-0.055084	0.020142	-0.005493	0.14404	-0.041809	0.02121	0.003967	0.05188	-0.010986	-0.003052	0.008087	0.023956	0.1178	0.1181	0.18845	-0.031586	0.089722	-0.095673	-0.012817	-0.13672	0.043793	-0.53558	0.023956	0.085144	0.064392	-0.00061	-0.010376
39.852	0.000305	-0.052338	0.040131	0.014191	0.062561	-0.016632	0.027618	-0.001526	0.1239	-0.058289	0.019073	0.01236	-0.045624	-0.02533	-0.003357	0.003967	-0.017242	-0.002136	-0.091705	0.26062	0.003357	0.11643	-0.10162	0.044403	-0.045776	0.069885	-0.63339	0.032806	0.045166	0.024872	0.000916	-0.011749
39.853	-0.004272	-0.015106	0.012512	0.010834	0.014496	0.032806	0.016479	0.007935	0.11673	-0.05661	0.015564	0.001984	-0.048065	-0.049438	-0.005798	-0.003357	-0.030518	-0.055847	-0.20706	0.22018	0.02121	0.12482	-0.009003	0.087128	-0.036163	0.069275	-0.37247	0.020142	-0.09201	-0.007019	0	-0.015717
39.854	-0.000153	-0.026398	0.010834	0.016937	0.001526	0.068817	0.009003	0	0.10437	-0.050201	0.002899	0.002289	0.010223	-0.068817	-0.00946	0.010834	-0.009003	0.012512	0.29602	0.079956	0.13214	0.11292	0.028381	0.12009	-0.012665	0.058289	-0.42602	0.015411	-0.28351	-0.17899	-0.002289	-0.010071
